<svg width="46" height="43" viewBox="0 0 46 43" fill="none" xmlns="http://www.w3.org/2000/svg">
<g opacity="0.5">
<path d="M21.5374 32.9811L11.9161 42.4328C11.7341 42.6118 11.5179 42.7539 11.2799 42.8508C11.042 42.9476 10.7869 42.9975 10.5293 42.9975C10.2717 42.9975 10.0166 42.9476 9.77869 42.8508C9.54073 42.7539 9.32454 42.6118 9.14248 42.4328L1.19168 34.6389C1.00798 34.4608 0.862117 34.2487 0.762557 34.0149C0.663001 33.781 0.611732 33.53 0.611732 33.2765C0.611732 33.023 0.663001 32.772 0.762557 32.5381C0.862117 32.3043 1.00798 32.0922 1.19168 31.9141L21.5374 11.9269C21.7186 11.7468 21.9344 11.6038 22.1722 11.5062C22.4101 11.4087 22.6653 11.3584 22.9231 11.3584C23.1808 11.3584 23.436 11.4087 23.6739 11.5062C23.9117 11.6038 24.1275 11.7468 24.3087 11.9269L44.6544 31.9141C44.8381 32.0921 44.984 32.3043 45.0836 32.5381C45.1831 32.772 45.2344 33.023 45.2344 33.2765C45.2344 33.53 45.1831 33.781 45.0836 34.0148C44.984 34.2487 44.8381 34.4608 44.6544 34.6389L36.7061 42.4352C36.524 42.6142 36.3078 42.7562 36.0699 42.8531C35.8319 42.95 35.5768 42.9999 35.3192 42.9999C35.0617 42.9999 34.8066 42.95 34.5686 42.8531C34.3307 42.7562 34.1145 42.6142 33.9324 42.4352L24.3087 32.9811C23.9411 32.6202 23.4427 32.4175 22.9231 32.4175C22.4034 32.4175 21.905 32.6202 21.5374 32.9811Z" fill="#EDFAFB"/>
<path d="M21.5374 32.9811L11.9161 42.4328C11.7341 42.6118 11.5179 42.7539 11.2799 42.8508C11.042 42.9476 10.7869 42.9975 10.5293 42.9975C10.2717 42.9975 10.0166 42.9476 9.77869 42.8508C9.54073 42.7539 9.32454 42.6118 9.14248 42.4328L1.19168 34.6389C1.00798 34.4608 0.862117 34.2487 0.762557 34.0149C0.663001 33.781 0.611732 33.53 0.611732 33.2765C0.611732 33.023 0.663001 32.772 0.762557 32.5381C0.862117 32.3043 1.00798 32.0922 1.19168 31.9141L21.5374 11.9269C21.7186 11.7468 21.9344 11.6038 22.1722 11.5062C22.4101 11.4087 22.6653 11.3584 22.9231 11.3584C23.1808 11.3584 23.436 11.4087 23.6739 11.5062C23.9117 11.6038 24.1275 11.7468 24.3087 11.9269L44.6544 31.9141C44.8381 32.0921 44.984 32.3043 45.0836 32.5381C45.1831 32.772 45.2344 33.023 45.2344 33.2765C45.2344 33.53 45.1831 33.781 45.0836 34.0148C44.984 34.2487 44.8381 34.4608 44.6544 34.6389L36.7061 42.4352C36.524 42.6142 36.3078 42.7562 36.0699 42.8531C35.8319 42.95 35.5768 42.9999 35.3192 42.9999C35.0617 42.9999 34.8066 42.95 34.5686 42.8531C34.3307 42.7562 34.1145 42.6142 33.9324 42.4352L24.3087 32.9811C23.9411 32.6202 23.4427 32.4175 22.9231 32.4175C22.4034 32.4175 21.905 32.6202 21.5374 32.9811Z" fill="#EDFAFB"/>
</g>
<path d="M21.5374 22.1756L11.9161 31.8697C11.7341 32.0533 11.5179 32.199 11.2799 32.2984C11.042 32.3978 10.7869 32.4489 10.5293 32.4489C10.2717 32.4489 10.0166 32.3978 9.77869 32.2984C9.54073 32.199 9.32454 32.0533 9.14248 31.8697L1.19168 23.876C1.00798 23.6934 0.862117 23.4758 0.762557 23.2359C0.663001 22.9961 0.611732 22.7386 0.611732 22.4786C0.611732 22.2186 0.663001 21.9612 0.762557 21.7214C0.862117 21.4815 1.00798 21.2639 1.19168 21.0813L21.5374 0.581629C21.7186 0.396911 21.9344 0.250258 22.1722 0.150168C22.4101 0.0500767 22.6653 -0.00146188 22.9231 -0.00146192C23.1808 -0.00146195 23.436 0.0500766 23.6739 0.150167C23.9117 0.250258 24.1275 0.396911 24.3087 0.581629L44.6544 21.0813C44.8381 21.2639 44.984 21.4815 45.0836 21.7213C45.1831 21.9612 45.2344 22.2186 45.2344 22.4786C45.2344 22.7386 45.1831 22.996 45.0836 23.2359C44.984 23.4758 44.8381 23.6933 44.6544 23.876L36.7061 31.8722C36.524 32.0558 36.3078 32.2015 36.0699 32.3008C35.8319 32.4002 35.5768 32.4514 35.3192 32.4514C35.0617 32.4514 34.8066 32.4002 34.5686 32.3008C34.3307 32.2015 34.1145 32.0558 33.9324 31.8722L24.3087 22.1756C23.9411 21.8055 23.4427 21.5977 22.9231 21.5977C22.4034 21.5977 21.905 21.8055 21.5374 22.1756Z" fill="#EDFAFB"/>
<path d="M21.5374 22.1756L11.9161 31.8697C11.7341 32.0533 11.5179 32.199 11.2799 32.2984C11.042 32.3978 10.7869 32.4489 10.5293 32.4489C10.2717 32.4489 10.0166 32.3978 9.77869 32.2984C9.54073 32.199 9.32454 32.0533 9.14248 31.8697L1.19168 23.876C1.00798 23.6934 0.862117 23.4758 0.762557 23.2359C0.663001 22.9961 0.611732 22.7386 0.611732 22.4786C0.611732 22.2186 0.663001 21.9612 0.762557 21.7214C0.862117 21.4815 1.00798 21.2639 1.19168 21.0813L21.5374 0.581629C21.7186 0.396911 21.9344 0.250258 22.1722 0.150168C22.4101 0.0500767 22.6653 -0.00146188 22.9231 -0.00146192C23.1808 -0.00146195 23.436 0.0500766 23.6739 0.150167C23.9117 0.250258 24.1275 0.396911 24.3087 0.581629L44.6544 21.0813C44.8381 21.2639 44.984 21.4815 45.0836 21.7213C45.1831 21.9612 45.2344 22.2186 45.2344 22.4786C45.2344 22.7386 45.1831 22.996 45.0836 23.2359C44.984 23.4758 44.8381 23.6933 44.6544 23.876L36.7061 31.8722C36.524 32.0558 36.3078 32.2015 36.0699 32.3008C35.8319 32.4002 35.5768 32.4514 35.3192 32.4514C35.0617 32.4514 34.8066 32.4002 34.5686 32.3008C34.3307 32.2015 34.1145 32.0558 33.9324 31.8722L24.3087 22.1756C23.9411 21.8055 23.4427 21.5977 22.9231 21.5977C22.4034 21.5977 21.905 21.8055 21.5374 22.1756Z" fill="#EDFAFB"/>
</svg>
