<svg width="51" height="53" viewBox="0 0 51 53" fill="none" xmlns="http://www.w3.org/2000/svg">
<path opacity="0.5" d="M19.6194 18.5283L19.718 7.10821C19.7198 6.89201 19.763 6.67753 19.8451 6.47703C19.9272 6.27654 20.0466 6.09395 20.1965 5.93972C20.3464 5.78548 20.5239 5.66263 20.7188 5.57816C20.9137 5.4937 21.1222 5.44929 21.3323 5.44748L30.4959 5.35355C30.7064 5.35016 30.9148 5.38982 31.1088 5.47025C31.3029 5.55067 31.4788 5.67025 31.6264 5.82203C31.7739 5.97382 31.8901 6.15479 31.9683 6.35443C32.0465 6.55408 32.085 6.76842 32.0817 6.98501L31.873 31.1345C31.8724 31.3509 31.8301 31.5657 31.7484 31.7665C31.6668 31.9674 31.5475 32.1502 31.3975 32.3046C31.2475 32.4589 31.0697 32.5816 30.8745 32.6656C30.6793 32.7496 30.4705 32.7932 30.2602 32.7938L6.78603 33.0085C6.5755 33.0119 6.36715 32.9722 6.17309 32.8918C5.97903 32.8114 5.80312 32.6918 5.65558 32.54C5.50804 32.3882 5.39181 32.2073 5.31363 32.0076C5.23546 31.808 5.1969 31.5936 5.2002 31.3771L5.28869 21.9499C5.29045 21.7337 5.33362 21.5192 5.41572 21.3187C5.49782 21.1182 5.61724 20.9356 5.76716 20.7814C5.91708 20.6271 6.09456 20.5043 6.28945 20.4198C6.48434 20.3353 6.69282 20.2909 6.90297 20.2891L18.0065 20.1876C18.4304 20.1835 18.8384 20.0065 19.1409 19.6953C19.4433 19.3842 19.6154 18.9644 19.6194 18.5283Z" fill="#7EE49C"/>
<path d="M25.908 24.9966L25.8656 13.4314C25.8647 13.2125 25.9058 12.9958 25.9864 12.7938C26.0671 12.5919 26.1858 12.4085 26.3357 12.2543C26.4856 12.1 26.6638 11.9779 26.8602 11.895C27.0565 11.812 27.2671 11.7698 27.4799 11.7707L36.7598 11.7964C36.973 11.7958 37.1845 11.8387 37.3821 11.9227C37.5796 12.0067 37.7593 12.1301 37.9106 12.2858C38.0619 12.4415 38.1819 12.6263 38.2636 12.8296C38.3452 13.0328 38.3869 13.2504 38.3863 13.4697L38.4759 37.9261C38.4779 38.1452 38.4377 38.3622 38.3575 38.5645C38.2774 38.7669 38.1588 38.9505 38.0088 39.1049C37.8588 39.2592 37.6803 39.3811 37.4836 39.4636C37.2869 39.5461 37.076 39.5875 36.863 39.5854L13.0906 39.4932C12.8774 39.4939 12.6659 39.451 12.4683 39.3669C12.2708 39.2829 12.0911 39.1595 11.9398 39.0038C11.7885 38.8481 11.6685 38.6633 11.5869 38.4601C11.5052 38.2568 11.4635 38.0392 11.4641 37.8199L11.4362 28.273C11.4353 28.0541 11.4764 27.8374 11.557 27.6354C11.6377 27.4335 11.7564 27.2501 11.9063 27.0959C12.0562 26.9416 12.2344 26.8195 12.4308 26.7366C12.6271 26.6536 12.8377 26.6114 13.0505 26.6123L24.2951 26.6559C24.7245 26.6574 25.1355 26.4834 25.4379 26.1723C25.7404 25.8612 25.9094 25.4383 25.908 24.9966Z" fill="#7EE49C"/>
</svg>
