<svg width="51" height="53" viewBox="0 0 51 53" fill="none" xmlns="http://www.w3.org/2000/svg">
<path opacity="0.5" d="M31.3709 33.9356L31.2722 45.3557C31.2704 45.5719 31.2273 45.7863 31.1452 45.9868C31.0631 46.1873 30.9436 46.3699 30.7937 46.5241C30.6438 46.6784 30.4663 46.8012 30.2714 46.8857C30.0765 46.9702 29.8681 47.0146 29.6579 47.0164L20.4943 47.1103C20.2838 47.1137 20.0755 47.074 19.8814 46.9936C19.6873 46.9132 19.5114 46.7936 19.3639 46.6418C19.2163 46.49 19.1001 46.3091 19.0219 46.1094C18.9438 45.9098 18.9052 45.6954 18.9085 45.4789L19.1172 21.3293C19.1178 21.113 19.1602 20.8982 19.2418 20.6974C19.3234 20.4965 19.4427 20.3136 19.5927 20.1593C19.7428 20.005 19.9205 19.8822 20.1158 19.7983C20.311 19.7143 20.5198 19.6707 20.7301 19.6701L44.2042 19.4554C44.4147 19.452 44.6231 19.4916 44.8171 19.5721C45.0112 19.6525 45.1871 19.7721 45.3347 19.9238C45.4822 20.0756 45.5984 20.2566 45.6766 20.4562C45.7548 20.6559 45.7933 20.8702 45.79 21.0868L45.7015 30.514C45.6998 30.7302 45.6566 30.9447 45.5745 31.1452C45.4924 31.3457 45.373 31.5283 45.2231 31.6825C45.0731 31.8367 44.8957 31.9596 44.7008 32.0441C44.5059 32.1285 44.2974 32.1729 44.0873 32.1747L32.9838 32.2763C32.5598 32.2803 32.1518 32.4574 31.8493 32.7685C31.5469 33.0797 31.3748 33.4994 31.3709 33.9356Z" fill="#7EE49C"/>
<path d="M25.0822 27.4673L25.1246 39.0324C25.1255 39.2514 25.0845 39.468 25.0038 39.67C24.9232 39.872 24.8045 40.0554 24.6546 40.2096C24.5046 40.3638 24.3264 40.4859 24.1301 40.5689C23.9337 40.6519 23.7231 40.6941 23.5103 40.6932L14.2304 40.6674C14.0172 40.6681 13.8057 40.6252 13.6082 40.5412C13.4106 40.4571 13.231 40.3337 13.0796 40.178C12.9283 40.0224 12.8083 39.8375 12.7267 39.6343C12.645 39.4311 12.6033 39.2135 12.6039 38.9941L12.5143 14.5378C12.5123 14.3187 12.5525 14.1017 12.6327 13.8993C12.7129 13.697 12.8314 13.5133 12.9814 13.359C13.1314 13.2047 13.31 13.0827 13.5066 13.0002C13.7033 12.9178 13.9142 12.8764 14.1272 12.8785L37.8996 12.9706C38.1128 12.97 38.3243 13.0129 38.5219 13.0969C38.7194 13.1809 38.8991 13.3044 39.0504 13.46C39.2017 13.6157 39.3217 13.8005 39.4034 14.0038C39.485 14.207 39.5268 14.4246 39.5261 14.6439L39.554 24.1908C39.5549 24.4098 39.5138 24.6264 39.4332 24.8284C39.3525 25.0304 39.2339 25.2138 39.0839 25.368C38.934 25.5222 38.7558 25.6443 38.5595 25.7273C38.3631 25.8103 38.1525 25.8525 37.9397 25.8516L26.6951 25.808C26.2658 25.8065 25.8547 25.9804 25.5523 26.2916C25.2499 26.6027 25.0808 27.0256 25.0822 27.4673Z" fill="#7EE49C"/>
</svg>
